bicep_curl
version=1
nRows=14
nColumns=17
inDegrees=yes

# SIMM Motion File Header:
name bicep_curl
datacolumns 17
datarows 14
otherdata 1
range 0.02100000 0.04361487
endheader
time	/jointset/r_shoulder/r_shoulder_elev/value	/jointset/r_shoulder/r_shoulder_elev/speed	/jointset/r_elbow/r_elbow_flex/value	/jointset/r_elbow/r_elbow_flex/speed	/forceset/TRIlong/activation	/forceset/TRIlong/fiber_length	/forceset/TRIlat/activation	/forceset/TRIlat/fiber_length	/forceset/TRImed/activation	/forceset/TRImed/fiber_length	/forceset/BIClong/activation	/forceset/BIClong/fiber_length	/forceset/BICshort/activation	/forceset/BICshort/fiber_length	/forceset/BRA/activation	/forceset/BRA/fiber_length
0.02100000	      0.00027769	      0.36951799	     29.99921330	     -1.09922010	      0.03379661	      0.14811526	      0.12129764	      0.08149311	      0.15264422	      0.07657507	      0.15008701	      0.13825971	      0.10988409	      0.13728052	      0.06198164	      0.08596366
0.02243930	      0.00123966	      0.99221241	     29.99635192	     -2.95083063	      0.03320248	      0.14811650	      0.11797702	      0.08149508	      0.18959561	      0.07652974	      0.14583569	      0.13826228	      0.10758396	      0.13728240	      0.06165736	      0.08596398
0.02387860	      0.00322352	      1.79978848	     29.99045386	     -5.34923472	      0.03262092	      0.14811855	      0.11475971	      0.08149847	      0.21845385	      0.07646901	      0.14172889	      0.13826703	      0.10534943	      0.13728593	      0.06134017	      0.08596460
0.02592724	      0.00840878	      3.34139833	     29.97505065	     -9.92165371	      0.03181425	      0.14812245	      0.11035007	      0.08150509	      0.25001972	      0.07637840	      0.13611963	      0.13827775	      0.10227738	      0.13729395	      0.06090062	      0.08596618
0.02851926	      0.02029963	      5.94722407	     29.93976554	    -17.63871692	      0.03082794	      0.14812817	      0.10504031	      0.08151491	      0.27914874	      0.07627461	      0.12939517	      0.13829852	      0.09856393	      0.13730969	      0.06036389	      0.08596980
0.03080321	      0.03699563	      8.73671343	     29.89027371	    -25.88596201	      0.02998943	      0.14813295	      0.10059531	      0.08152308	      0.29804116	      0.07619647	      0.12379073	      0.13832426	      0.09544339	      0.13732955	      0.05990824	      0.08597518
0.03308716	      0.06043790	     11.82804832	     29.82085415	    -35.00911208	      0.02917845	      0.14813661	      0.09635512	      0.08152923	      0.31249347	      0.07612778	      0.11846551	      0.13835789	      0.09245672	      0.13735612	      0.05946819	      0.08598344
0.03537111	      0.09113614	     15.06651504	     29.73004270	    -44.54668004	      0.02839399	      0.14813846	      0.09230738	      0.08153221	      0.32368334	      0.07606445	      0.11340100	      0.13840040	      0.08959672	      0.13739071	      0.05904317	      0.08599550
0.03720296	      0.12113418	     17.68305036	     29.64138844	    -52.23698904	      0.02778333	      0.14813803	      0.08919221	      0.08153129	      0.33085761	      0.07601500	      0.10951592	      0.13844157	      0.08738984	      0.13742520	      0.05871277	      0.08600854
0.03903480	      0.15590136	     20.26783443	     29.53872915	    -59.82128578	      0.02718862	      0.14813455	      0.08618801	      0.08152514	      0.33676806	      0.07596508	      0.10577953	      0.13848947	      0.08525685	      0.13746649	      0.05839142	      0.08602503
0.04000000	      0.17611191	     21.60790256	     29.47908994	    -63.74924006	      0.02688153	      0.14813145	      0.08464797	      0.08151966	      0.33945718	      0.07593818	      0.10386808	      0.13851750	      0.08416166	      0.13749119	      0.05822565	      0.08603522
0.04100000	      0.19832443	     22.82047818	     29.41357196	    -67.29555820	      0.02660789	      0.14812727	      0.08281248	      0.08151245	      0.37750178	      0.07590172	      0.10169139	      0.13854881	      0.08325944	      0.13751879	      0.05913835	      0.08604622
0.04230744	      0.22923565	     24.48855563	     29.32244262	    -72.17652220	      0.02625595	      0.14812028	      0.08046730	      0.08150083	      0.41971956	      0.07583600	      0.09891438	      0.13859351	      0.08210375	      0.13755768	      0.06011777	      0.08606076
0.04361487	      0.26243943	     26.33940567	     29.22460053	    -77.59982605	      0.02591050	      0.14811164	      0.07818204	      0.08148665	      0.45541591	      0.07575948	      0.09621279	      0.13864231	      0.08097448	      0.13759982	      0.06090080	      0.08607618
